Coordinates
nRows=8
nColumns=24

# SIMM Motion File Header:
name Coordinates
datacolumns 24
datarows 8
otherdata 1
range 0.67266999999999999000 0.67967000000000000000
endheader
time	pelvis_tx	pelvis_ty	pelvis_tz	pelvis_tilt	pelvis_list	pelvis_rotation	hip_flexion_r	hip_adduction_r	hip_rotation_r	knee_angle_r	ankle_angle_r	subtalar_angle_r	mtp_angle_r	hip_flexion_l	hip_adduction_l	hip_rotation_l	knee_angle_l	ankle_angle_l	subtalar_angle_l	mtp_angle_l	lumbar_extension	lumbar_bending	lumbar_rotation
      0.67266999999999999000	      1.40745056205360110000	      0.69636737028091389000	     -0.29875425106426495000	      2.77477398433892340000	      0.88068175788272685000	     -8.06353303200693540000	     19.56573067343903100000	     -4.62674500103231700000	    -10.26403234329694100000	    -45.75011361149961400000	      1.52177249217968270000	      0.00000000000021181100	      0.00000000000017349410	     -8.02448348657777370000	      1.87567815517465180000	     -7.70671277127821860000	     -2.16640738935159140000	      4.10151637355028780000	     -0.00000000000000196027	     -0.00000000000038848618	    -20.59790865333009800000	     -6.10834110444516560000	      1.12566371332639470000
      0.67366999999999999000	      1.40881519526169230000	      0.69633100825641459000	     -0.29876516841034045000	      2.78282550254917900000	      0.84619702207742753000	     -8.07321857108433250000	     19.67935906134130200000	     -4.52602470827741850000	    -10.04056293426990200000	    -45.42346305075443500000	      1.55878501367720320000	      0.00000000000021244557	      0.00000000000017582805	     -8.23679753485718540000	      1.85428852938472580000	     -7.72831858464521560000	     -2.01009144912113410000	      4.08455865622260990000	     -0.00000000000000197006	     -0.00000000000038956302	    -20.61753356560290800000	     -6.05872955117448340000	      1.18669352505982670000
      0.67466999999999999000	      1.41017982846978370000	      0.69629464623191528000	     -0.29877608575641595000	      2.79087702075943470000	      0.81171228627212821000	     -8.08290411016172960000	     19.79298744924356900000	     -4.42530441552251920000	     -9.81709352524286060000	    -45.09681249000924900000	      1.59579753517472380000	      0.00000000000021308014	      0.00000000000017816200	     -8.44911158313659700000	      1.83289890359479960000	     -7.74992439801221340000	     -1.85377550889067670000	      4.06760093889493210000	     -0.00000000000000197986	     -0.00000000000039063985	    -20.63715847787572200000	     -6.00911799790380120000	      1.24772333679325880000
      0.67566999999999999000	      1.41154324095382930000	      0.69624725342954497000	     -0.29878779529182570000	      2.79983025260785160000	      0.77757538759749401000	     -8.08989306845839270000	     19.90103835119400000000	     -4.32563626833649370000	     -9.59067167005083480000	    -44.75963661209530600000	      1.61955031429979560000	      0.00000000000021377514	      0.00000000000018045122	     -8.66125600947531460000	      1.81205804323791920000	     -7.76666716155327470000	     -1.69967180641030110000	      4.05180163945163320000	     -0.00000000000000202182	     -0.00000000000039162355	    -20.65907358082567300000	     -5.95989132210876440000	      1.30732336611393030000
      0.67666999999999999000	      1.41290611797169930000	      0.69619589089395972000	     -0.29879981280035256000	      2.80916455432607700000	      0.74361350622180655000	     -8.09592656268946160000	     20.00710984926760400000	     -4.22648722031420740000	     -9.36315720842794620000	    -44.41869103828113200000	      1.63472654997177180000	      0.00000000000021448022	      0.00000000000018275657	     -8.87336669565564050000	      1.79148545233425890000	     -7.78163053584807680000	     -1.54643532779766040000	      4.03654479845705260000	     -0.00000000000000204978	     -0.00000000000039264943	    -20.68189686995214400000	     -5.91087186946646610000	      1.36639065640962040000
      0.67766999999999999000	      1.41426899498956900000	      0.69614452835837448000	     -0.29881183030887948000	      2.81849885604430290000	      0.70965162484611910000	     -8.10196005692053060000	     20.11318134734120400000	     -4.12733817229192110000	     -9.13564274680505940000	    -44.07774546446695000000	      1.64990278564374830000	      0.00000000000021518531	      0.00000000000018506192	     -9.08547738183596820000	      1.77091286143059870000	     -7.79659391014287890000	     -1.39319884918501980000	      4.02128795746247290000	     -0.00000000000000207775	     -0.00000000000039367531	    -20.70472015907861500000	     -5.86185241682416790000	      1.42545794670531060000
      0.67867000000000000000	      1.41563079547170360000	      0.69608204321770850000	     -0.29882520345996977000	      2.82956974154498120000	      0.67651716804450268000	     -8.10459285738795110000	     20.21222483155229500000	     -4.03036844900407590000	     -8.90584101028913720000	    -43.72565798860368600000	      1.65703459293889320000	      0.00000000000021589158	      0.00000000000018739484	     -9.29811084656414800000	      1.75144933551217010000	     -7.80563463336558350000	     -1.24262946580949650000	      4.00799223937565770000	     -0.00000000000000207783	     -0.00000000000039480821	    -20.73084489288508400000	     -5.81370502073709710000	      1.48215401824161310000
      0.67967000000000000000	      1.41699255219222290000	      0.69601910593862470000	     -0.29883863171848130000	      2.84071121988234500000	      0.64341634638817391000	     -8.10708741827148320000	     20.31098262414295200000	     -3.93348731615258940000	     -8.67594629511902580000	    -43.37311758989290000000	      1.66383939095042650000	      0.00000000000021659791	      0.00000000000018972887	     -9.51076556245280890000	      1.73203089353623070000	     -7.81443459841462570000	     -1.09216850093954760000	      3.99477624173224790000	     -0.00000000000000207677	     -0.00000000000039594546	    -20.75710383175984600000	     -5.76559307410349130000	      1.53875369877143630000
